<?xml version="1.0" encoding="utf-8"?>
<!-- Generator: Adobe Illustrator 18.1.1, SVG Export Plug-In . SVG Version: 6.00 Build 0)  -->
<svg version="1.1" id="Layer_1" xmlns="http://www.w3.org/2000/svg" xmlns:xlink="http://www.w3.org/1999/xlink" x="0px" y="0px"
	 viewBox="0 0 37.5 9.9" enable-background="new 0 0 37.5 9.9" xml:space="preserve">
<g>
	<defs>
		<rect id="SVGID_1_" x="0" y="0" width="37.5" height="9.9"/>
	</defs>
	<clipPath id="SVGID_2_">
		<use xlink:href="#SVGID_1_"  overflow="visible"/>
	</clipPath>
	<path clip-path="url(#SVGID_2_)" fill="#3AC1CC" d="M1.5,1.4C2.3,0.6,3.5,0,5,0c4.2,0,8.3,1.9,11.9,3.6l-0.3,0.6
		C13,2.5,9,0.7,5,0.7c-1.6,0-2.5,0.7-3.1,1.4C1.1,2.9,0.7,3.9,0.7,5c0,2,1.6,4.3,4.3,4.3c4.5,0,9.2-2.3,13.7-4.6
		c4.6-2.3,9.3-4.6,14-4.6c1.2,0,2.4,0.5,3.3,1.3c0.7,0.7,1.6,1.8,1.6,3.7c0,1.2-0.5,2.4-1.3,3.3c-0.1,0.1-0.1,0.1-0.2,0.2
		c-0.9,0.9-2.1,1.4-3.4,1.4c-4.2,0-8.3-1.9-11.9-3.6L21,5.7c3.5,1.7,7.6,3.6,11.6,3.6c1.2,0,2.3-0.5,3.1-1.4C36.4,7,36.8,5.9,36.8,5
		c0-1.6-0.8-2.6-1.4-3.2c-0.8-0.7-1.9-1.1-2.9-1.1c-4.5,0-9.2,2.3-13.7,4.6C14.4,7.5,9.6,9.9,5,9.9c-3.1,0-5-2.6-5-5
		C0,3.7,0.5,2.4,1.5,1.4"/>
</g>
</svg>
